<svg width="204" height="52" viewBox="0 0 204 52" fill="none" xmlns="http://www.w3.org/2000/svg">
<path fill-rule="evenodd" clip-rule="evenodd" d="M78.5513 31.9779L77.6482 29.8404H71.285L70.3809 31.9779H67.4023L72.9673 19.507H75.9805L81.5454 31.9779H78.5513ZM72.3305 27.3818H76.6009L74.4753 22.3214L72.3305 27.3818ZM82.3993 31.9779V30.5346L88.4605 21.8944H82.7013V19.507H92.1835V20.7185L86.2282 29.3769H92.3249V31.9779H82.3993ZM94.7379 19.5079H97.4848V31.9788H94.7379V19.5079ZM109.487 31.9779L103.321 23.9963L103.426 28.0934V31.9779H100.627V19.507H103L109.258 27.6126L109.08 23.6934V19.507H111.862V31.9779H109.487ZM117.696 31.9779V21.9829H113.922V19.507H124.219V21.9829H120.444V31.9779H117.696ZM126.278 31.9779V19.507H135.477V22.055H128.989V24.4597H135.105V26.9001H128.989V29.4125H135.724V31.9779H126.278ZM138.279 31.9779V19.507H141.044V29.4299H147.248V31.9779H138.279ZM149.289 31.9779V19.507H158.487V22.055H152.001V24.4597H158.115V26.9001H152.001V29.4125H158.735V31.9779H149.289ZM171.854 30.4635C170.577 31.7279 168.93 32.2981 167.085 32.2981C162.353 32.2981 160.475 29.2346 160.458 25.8318C160.44 22.6069 162.531 19.2214 167.085 19.2214C168.788 19.2214 170.365 19.8819 171.641 21.1463L169.904 22.8742C169.16 22.1444 168.079 21.8406 167.085 21.8406C164.268 21.8406 163.17 24.0319 163.187 25.8492C163.205 27.6664 164.18 29.7336 167.085 29.7336C168.079 29.7336 169.39 29.2875 170.135 28.5386L171.854 30.4635ZM179.531 21.6983C177.174 21.6983 175.544 23.48 175.544 25.7424C175.544 28.076 177.174 29.7692 179.531 29.7692C181.942 29.7692 183.519 28.0587 183.519 25.7424C183.519 23.4617 181.94 21.6983 179.531 21.6983ZM179.532 32.2807C175.56 32.2807 172.833 29.8048 172.833 25.7424C172.833 21.6809 175.56 19.2041 179.532 19.2041C183.502 19.2041 186.231 21.6809 186.231 25.7424C186.231 29.8048 183.502 32.2807 179.532 32.2807ZM199.455 23.3194L195.627 28.1654H195.131L191.426 23.2838V31.9961H188.662V19.5252H191.834L195.45 24.3174L199.083 19.5252H202.22V31.9961H199.455V23.3194Z" fill="white" style="mix-blend-mode:exclusion"/>
<mask id="mask0_5069_10397" style="mask-type:luminance" maskUnits="userSpaceOnUse" x="0" y="0" width="52" height="52">
<path d="M0.677734 0.304688H51.1551V51.0421H0.677734V0.304688Z" fill="white"/>
</mask>
<g mask="url(#mask0_5069_10397)">
<path fill-rule="evenodd" clip-rule="evenodd" d="M51.1551 0.303711V51.042H0.677734V0.303711H51.1551ZM41.0945 10.4209H10.7384V40.9276H41.0945V10.4209Z" fill="white" style="mix-blend-mode:exclusion"/>
</g>
</svg>
